{
    "accessors" : [
        {
            "bufferView" : 0, 
            "componentType" : 5123, 
            "count" : 11904, 
            "max" : [
                2053
            ], 
            "min" : [
                0
            ], 
            "type" : "SCALAR"
        }, 
        {
            "bufferView" : 1, 
            "componentType" : 5126, 
            "count" : 2054, 
            "max" : [
                1.0, 
                0.9999999403953552, 
                0.9999999403953552
            ], 
            "min" : [
                -1.0, 
                -0.9999999403953552, 
                -0.9999999403953552
            ], 
            "type" : "VEC3"
        }, 
        {
            "bufferView" : 2, 
            "componentType" : 5126, 
            "count" : 2054, 
            "max" : [
                1.0, 
                1.0, 
                1.0
            ], 
            "min" : [
                -1.0, 
                -1.0, 
                -1.0
            ], 
            "type" : "VEC3"
        }, 
        {
            "bufferView" : 3, 
            "componentType" : 5126, 
            "count" : 2054, 
            "max" : [
                0.9157832264900208, 
                0.9842784404754639, 
                0.4571106433868408, 
                1.0
            ], 
            "min" : [
                -0.9183156490325928, 
                -0.9834310412406921, 
                -0.46160998940467834, 
                -1.0
            ], 
            "type" : "VEC4"
        }, 
        {
            "bufferView" : 4, 
            "componentType" : 5126, 
            "count" : 2054, 
            "max" : [
                1.3941099643707275, 
                0.9922500252723694
            ], 
            "min" : [
                0.004550000187009573, 
                0.020250022411346436
            ], 
            "type" : "VEC2"
        }
    ], 
    "asset" : {
        "generator" : "Khronos Blender glTF 2.0 exporter", 
        "version" : "2.0"
    }, 
    "bufferViews" : [
        {
            "buffer" : 0, 
            "byteLength" : 23808, 
            "byteOffset" : 0, 
            "target" : 34963
        }, 
        {
            "buffer" : 0, 
            "byteLength" : 24648, 
            "byteOffset" : 23808, 
            "target" : 34962
        }, 
        {
            "buffer" : 0, 
            "byteLength" : 24648, 
            "byteOffset" : 48456, 
            "target" : 34962
        }, 
        {
            "buffer" : 0, 
            "byteLength" : 32864, 
            "byteOffset" : 73104, 
            "target" : 34962
        }, 
        {
            "buffer" : 0, 
            "byteLength" : 16432, 
            "byteOffset" : 105968, 
            "target" : 34962
        }
    ], 
    "buffers" : [
        {
            "byteLength" : 122400, 
            "uri" : "mars.bin"
        }
    ], 
    "images" : [
        {
            "uri" : "mercurius_diffuse.png"
        }
    ], 
    "materials" : [
        {
            "name" : "mercurius", 
            "pbrMetallicRoughness" : {
                "baseColorTexture" : {
                    "index" : 0
                }, 
                "metallicFactor" : 0.0
            }
        }
    ], 
    "meshes" : [
        {
            "name" : "Mercury", 
            "primitives" : [
                {
                    "attributes" : {
                        "NORMAL" : 2, 
                        "POSITION" : 1, 
                        "TANGENT" : 3, 
                        "TEXCOORD_0" : 4
                    }, 
                    "indices" : 0, 
                    "material" : 0
                }
            ]
        }
    ], 
    "nodes" : [
        {
            "mesh" : 0, 
            "name" : "Mercury", 
            "rotation" : [
                0.7071068286895752, 
                0.0, 
                -0.0, 
                0.7071068286895752
            ], 
            "scale" : [
                -18.05234146118164, 
                -18.05234146118164, 
                -18.05234146118164
            ]
        }
    ], 
    "samplers" : [
        {}
    ], 
    "scene" : 0, 
    "scenes" : [
        {
            "name" : "Scene", 
            "nodes" : [
                0
            ]
        }
    ], 
    "textures" : [
        {
            "sampler" : 0, 
            "source" : 0
        }
    ]
}
